<svg width="16" height="16" viewBox="0 0 16 16" fill="none" xmlns="http://www.w3.org/2000/svg">
<path d="M8.00005 8.7409C10.0711 8.7409 11.7501 7.0827 11.7501 5.0372C11.7501 2.9917 10.0711 1.3335 8.00005 1.3335C5.92896 1.3335 4.25 2.9917 4.25 5.0372C4.25 7.0827 5.92896 8.7409 8.00005 8.7409Z" fill="white"/>
<path d="M13.9935 12.4505C13.9969 12.3978 13.9969 12.3449 13.9935 12.2922C13.9786 12.0974 13.9234 11.9071 13.8307 11.7321C13.4662 11.0197 12.4442 10.6971 11.5914 10.5144C10.983 10.3877 10.3648 10.3063 9.74263 10.2709L9.09165 10.2222H8.79871H8.43417H7.56186H7.19731H6.90438L6.2534 10.2709C5.63124 10.3063 5.01306 10.3877 4.40463 10.5144C3.55186 10.6727 2.52983 11.0015 2.16528 11.7321C2.07266 11.9071 2.01738 12.0974 2.00254 12.2922C1.99915 12.3449 1.99915 12.3978 2.00254 12.4505C1.99941 12.5032 1.99941 12.556 2.00254 12.6088C2.02024 12.8019 2.07772 12.9901 2.17179 13.1628C2.53634 13.8751 3.55837 14.1978 4.41114 14.3805C5.0207 14.5012 5.63841 14.5826 6.25991 14.624L6.91089 14.6666H7.06712H7.20382H8.80522H8.94193H9.09816L9.74914 14.624C10.3706 14.5826 10.9883 14.5012 11.5979 14.3805C12.4507 14.2161 13.4727 13.8934 13.8373 13.1628C13.9269 12.9846 13.9821 12.7929 14 12.5966C14.0008 12.5478 13.9987 12.499 13.9935 12.4505Z" fill="white"/>
</svg>
